<svg width="153" height="21" viewBox="0 0 153 21" fill="none" xmlns="http://www.w3.org/2000/svg">
<path opacity="0.8" d="M29.368 13.088H24.616L23.392 20H17.344L20.656 0.955998L32.644 0.955998L30.988 6.356H25.768L25.336 8.804H30.088L29.368 13.088ZM16.192 19.892L0.928 18.272H16.48L16.192 19.892ZM17.416 12.944L2.152 11.324H17.704L17.416 12.944ZM18.028 9.488L2.764 7.868H18.316L18.028 9.488ZM18.64 6.032L3.376 4.412H18.928L18.64 6.032ZM19.252 2.576L3.988 0.955998H19.504L19.252 2.576ZM16.804 16.4L1.54 14.78H17.092L16.804 16.4ZM51.3935 12.26H46.0295L45.5975 14.708H52.2575L51.3215 20L38.6135 20L41.9255 0.955998H54.5975L52.9055 6.356H47.0375L46.6055 8.804H52.0055L51.3935 12.26ZM37.4255 19.892L22.1615 18.272H37.7135L37.4255 19.892ZM38.6495 12.944L23.3855 11.324H38.9375L38.6495 12.944ZM39.2615 9.488L23.9975 7.868H39.5495L39.2615 9.488ZM39.8735 6.032L24.6095 4.412H40.1615L39.8735 6.032ZM40.4855 2.576L25.2215 0.955998L40.7375 0.955998L40.4855 2.576ZM38.0375 16.4L22.7735 14.78H38.3255L38.0375 16.4ZM77.4665 6.356H73.5785L71.2025 20H64.8665L67.2425 6.356H63.2465L64.2185 0.955998H78.4385L77.4665 6.356ZM63.7865 19.892L48.5225 18.272H64.0745L63.7865 19.892ZM65.0105 12.944L49.7465 11.324H65.2985L65.0105 12.944ZM65.6225 9.488L50.3585 7.868H65.9105L65.6225 9.488ZM62.1665 6.032L46.9025 4.412H62.4545L62.1665 6.032ZM62.7785 2.576L47.5145 0.955998L63.0305 0.955998L62.7785 2.576ZM64.3985 16.4L49.1345 14.78H64.6865L64.3985 16.4ZM96.7282 19.604C95.4322 20.156 93.6322 20.432 91.3282 20.432C89.0242 20.432 87.3202 19.952 86.2162 18.992C85.1362 18.008 84.5962 16.472 84.5962 14.384C84.5962 13.448 84.7402 12.152 85.0282 10.496C85.6282 7.016 86.6602 4.496 88.1242 2.936C89.6122 1.376 91.9762 0.595999 95.2162 0.595999C97.5442 0.595999 99.1402 0.859999 100.004 1.388L98.1682 6.392C96.9682 6.056 95.8762 5.888 94.8922 5.888C93.9082 5.888 93.2122 5.972 92.8042 6.14C92.4202 6.308 92.1802 6.632 92.0842 7.112L90.6802 14.816C91.1842 14.936 92.0482 14.996 93.2722 14.996C94.5202 14.996 95.8642 14.732 97.3042 14.204L96.7282 19.604ZM83.7682 11.324C83.6722 12.068 83.6122 12.572 83.5882 12.836L69.4042 11.324H83.7682ZM84.4522 7.868L84.1282 9.38L70.0522 7.868H84.4522ZM83.5522 14.78C83.5522 15.164 83.6002 15.668 83.6962 16.292L69.5482 14.78H83.5522ZM85.7122 4.412C85.4242 5.036 85.2202 5.516 85.1002 5.852L71.4922 4.412H85.7122ZM84.3082 18.272C84.5962 18.848 84.9082 19.292 85.2442 19.604L72.6802 18.272H84.3082ZM88.8442 0.955998C88.2682 1.292 87.7762 1.688 87.3682 2.144L76.3162 0.955998H88.8442ZM117.108 20L118.224 13.412H114.192L113.04 20H106.992L110.304 0.955998H116.388L115.2 7.544H119.268L120.42 0.955998L126.504 0.955998L123.156 20H117.108ZM105.804 19.892L90.5404 18.272L106.092 18.272L105.804 19.892ZM107.028 12.944L91.7644 11.324L107.316 11.324L107.028 12.944ZM107.64 9.488L92.3764 7.868L107.928 7.868L107.64 9.488ZM108.252 6.032L92.9884 4.412L108.54 4.412L108.252 6.032ZM108.864 2.576L93.6004 0.955998H109.116L108.864 2.576ZM106.416 16.4L91.1524 14.78L106.704 14.78L106.416 16.4ZM147.257 0.955998C150.761 0.955998 152.513 2.54 152.513 5.708C152.513 7.148 152.225 8.648 151.649 10.208C151.073 11.744 150.101 12.896 148.733 13.664L150.785 20H144.053L142.685 14.456H141.821L140.849 20H134.801L138.113 0.955998H147.257ZM145.925 7.184C145.925 7.16 145.937 7.04 145.961 6.824C145.961 6.416 145.325 6.212 144.053 6.212H143.261L142.685 9.524H143.837C144.941 9.524 145.565 9.164 145.709 8.444L145.925 7.184ZM133.613 19.892L118.349 18.272H133.901L133.613 19.892ZM134.837 12.944L119.573 11.324H135.125L134.837 12.944ZM135.449 9.488L120.185 7.868H135.737L135.449 9.488ZM136.061 6.032L120.797 4.412H136.349L136.061 6.032ZM136.673 2.576L121.409 0.955998L136.925 0.955998L136.673 2.576ZM134.225 16.4L118.961 14.78H134.513L134.225 16.4Z" fill="#FF9900"/>
</svg>
