<svg width="115" height="95" viewBox="0 0 115 95" fill="none" xmlns="http://www.w3.org/2000/svg">
<path d="M80.4535 35.5811C77.6262 21.2367 65.028 10.468 49.8936 10.468C43.7401 10.468 38.0439 12.2559 33.2208 15.3326L39.2912 21.403C42.4512 19.7399 46.0685 18.7836 49.8936 18.7836C62.5334 18.7836 72.7615 29.0118 72.7615 41.6515V43.7304H78.9982C85.9002 43.7304 91.4717 49.3019 91.4717 56.2038C91.4717 60.9022 88.8107 64.9768 84.9855 67.0973L91.0143 73.1261C96.2947 69.3425 99.7873 63.189 99.7873 56.2038C99.7873 45.2272 91.2638 36.3296 80.4535 35.5811ZM12.4734 15.7484L23.9074 27.1408C10.644 27.7229 0 38.6163 0 52.046C0 65.8084 11.1845 76.9929 24.9468 76.9929H73.7178L82.0334 85.3085L87.3139 80.0281L17.7538 10.468L12.4734 15.7484ZM32.1398 35.4148L65.4022 68.6773H24.9468C15.7581 68.6773 8.31561 61.2348 8.31561 52.046C8.31561 42.8573 15.7581 35.4148 24.9468 35.4148H32.1398Z" fill="#c4c4c499"/>
<path d="M88.1458 15.0246L83.4711 12.3257L88.9914 6.74951C89.5978 6.07339 89.5705 5.0449 88.9345 4.67772L83.1013 1.30994C82.6152 1.02929 81.9419 1.2414 81.5292 1.80654L73.2166 13.2107C72.7187 13.8954 72.7982 14.8055 73.3855 15.1446L78.1938 17.9207L70.6403 26.6912C70.0501 27.3767 70.1019 28.3721 70.7217 28.7299C71.062 28.9263 71.5147 28.8906 71.9151 28.6087L87.9318 17.3316C88.7734 16.744 88.8952 15.4573 88.1458 15.0246Z" fill="#c4c4c499"/>
<path d="M109.351 15.0246L104.676 12.3257L110.196 6.74951C110.803 6.07339 110.775 5.0449 110.139 4.67772L104.306 1.30994C103.82 1.02929 103.147 1.2414 102.734 1.80654L94.4214 13.2107C93.9235 13.8954 94.003 14.8055 94.5903 15.1446L99.3986 17.9207L91.8451 26.6912C91.2549 27.3767 91.3068 28.3721 91.9265 28.7299C92.2668 28.9263 92.7195 28.8906 93.1199 28.6087L109.137 17.3316C109.978 16.744 110.1 15.4573 109.351 15.0246Z" fill="#c4c4c499"/>
<rect x="23.2088" y="79.0718" width="3.74202" height="18.7101" rx="1.87101" transform="rotate(45 23.2088 79.0718)" fill="#c4c4c499"/>
<rect x="46.9082" y="79.0718" width="3.74202" height="18.7101" rx="1.87101" transform="rotate(45 46.9082 79.0718)" fill="#c4c4c499"/>
<rect x="70.6077" y="79.0718" width="3.74202" height="18.7101" rx="1.87101" transform="rotate(45 70.6077 79.0718)" fill="#c4c4c499"/>
</svg>
